<svg xmlns="http://www.w3.org/2000/svg" viewBox="0 0 64 64" fill="none">
  <defs>
    <linearGradient id="ticketGrad" x1="0%" y1="0%" x2="100%" y2="100%">
      <stop offset="0%" style="stop-color:#818cf8"/>
      <stop offset="100%" style="stop-color:#6366f1"/>
    </linearGradient>
    <linearGradient id="accentGrad" x1="0%" y1="0%" x2="100%" y2="0%">
      <stop offset="0%" style="stop-color:#f472b6"/>
      <stop offset="100%" style="stop-color:#ec4899"/>
    </linearGradient>
  </defs>
  <!-- Ticket body -->
  <path d="M8 18C8 15.79 9.79 14 12 14H52C54.21 14 56 15.79 56 18V26C53.79 26 52 27.79 52 30C52 32.21 53.79 34 56 34V46C56 48.21 54.21 50 52 50H12C9.79 50 8 48.21 8 46V34C10.21 34 12 32.21 12 30C12 27.79 10.21 26 8 26V18Z" fill="url(#ticketGrad)"/>
  <!-- Ticket stub line -->
  <line x1="42" y1="14" x2="42" y2="50" stroke="#1e1b4b" stroke-width="2" stroke-dasharray="4 3" opacity="0.4"/>
  <!-- Star accent -->
  <path d="M24 28L25.5 31.5L29 32L26.5 34.5L27 38L24 36L21 38L21.5 34.5L19 32L22.5 31.5L24 28Z" fill="url(#accentGrad)"/>
  <!-- Music note -->
  <circle cx="48" cy="36" r="3" fill="#1e1b4b" opacity="0.5"/>
  <path d="M51 36V24L55 22V34" stroke="#1e1b4b" stroke-width="2" stroke-linecap="round" opacity="0.5"/>
</svg>
